<svg width="92" height="92" viewBox="0 0 92 92" fill="none" xmlns="http://www.w3.org/2000/svg">
<path fill-rule="evenodd" clip-rule="evenodd" d="M0.0126953 32.7998V16.7998C0.0126953 12.3815 1.57479 8.61029 4.69899 5.4861C7.82318 2.3619 11.5944 0.799805 16.0127 0.799805H75.0127C79.431 0.799805 83.2022 2.3619 86.3264 5.4861C89.4506 8.61029 91.0127 12.3815 91.0127 16.7998V75.7998C91.0127 80.2181 89.4506 83.9893 86.3264 87.1135C83.2022 90.2377 79.431 91.7998 75.0127 91.7998H16.0127C11.5944 91.7998 7.82318 90.2377 4.69899 87.1135C1.57479 83.9893 0.0126953 80.2181 0.0126953 75.7998V32.7998Z" fill="#B4B4B4"/>
<path fill-rule="evenodd" clip-rule="evenodd" d="M32.6086 59.8339H17.6776C17.151 59.8319 16.7251 59.4045 16.7251 58.8778C16.7251 58.3512 17.151 57.9238 17.6776 57.9219H32.6077C33.1343 57.9238 33.5602 58.3512 33.5602 58.8778C33.5602 59.4045 33.1343 59.8319 32.6077 59.8339H32.6086Z" fill="#B3BDCC"/>
<path fill-rule="evenodd" clip-rule="evenodd" d="M16.2908 64.2659C15.9878 64.2654 15.7029 64.1215 15.5227 63.8778C15.3427 63.6343 15.2885 63.3197 15.3768 63.0298L19.4768 49.6299C19.5736 49.2993 19.8406 49.0464 20.1759 48.9678C20.5111 48.889 20.8628 48.9968 21.0966 49.2498C21.3302 49.5027 21.4098 49.8618 21.3048 50.1898L17.2048 63.5898C17.0818 63.9915 16.7109 64.2659 16.2908 64.2659Z" fill="#B59385"/>
<path fill-rule="evenodd" clip-rule="evenodd" d="M33.9658 64.2649C33.5461 64.2644 33.1758 63.9902 33.0529 63.5889L28.9529 50.1888C28.8057 49.6865 29.0898 49.1593 29.5902 49.0061C30.0907 48.8528 30.6215 49.1304 30.7809 49.6289L34.8809 63.0288C34.9691 63.3187 34.915 63.6333 34.7349 63.8768C34.5547 64.1205 34.2699 64.2644 33.9668 64.2649H33.9658Z" fill="#B59385"/>
<path fill-rule="evenodd" clip-rule="evenodd" d="M20.3757 42.8289L19.4048 31.7638C19.2451 29.9448 17.7217 28.5496 15.8958 28.5498H14.9957C14.423 28.5503 13.8767 28.7915 13.4905 29.2145C13.1041 29.6375 12.9135 30.2034 12.9647 30.7738L14.3098 46.0958C14.5933 49.3259 17.2982 51.8038 20.5408 51.8038H33.5737C34.6595 51.8038 35.5398 50.9236 35.5398 49.8379V49.3528C35.5398 47.199 33.7937 45.4529 31.6398 45.4529H23.2338C21.7446 45.4521 20.5034 44.3125 20.3757 42.8289Z" fill="#78D7A8"/>
<path fill-rule="evenodd" clip-rule="evenodd" d="M15.2738 28.5498H14.9978C14.4246 28.5498 13.8778 28.7908 13.4911 29.2137C13.1044 29.6368 12.9133 30.203 12.9647 30.7738L14.3098 46.0958C14.5933 49.3259 17.2982 51.8038 20.5408 51.8038H28.6837C17.6307 50.0588 16.6007 46.3239 15.2738 28.5498Z" fill="#69BF96"/>
<path fill-rule="evenodd" clip-rule="evenodd" d="M73.4867 59.8339H58.5566C58.2142 59.8351 57.8973 59.6532 57.7258 59.3568C57.5543 59.0605 57.5543 58.6952 57.7258 58.3988C57.8973 58.1025 58.2142 57.9207 58.5566 57.9219H73.4867C74.0133 57.9238 74.4392 58.3512 74.4392 58.8778C74.4392 59.4045 74.0133 59.8319 73.4867 59.8339Z" fill="#B3BDCC"/>
<path fill-rule="evenodd" clip-rule="evenodd" d="M74.8757 64.2649C74.4561 64.2644 74.0857 63.9902 73.9628 63.5889L69.8628 50.1888C69.7156 49.6865 69.9998 49.1593 70.5002 49.0061C71.0006 48.8528 71.5314 49.1304 71.6908 49.6289L75.7908 63.0288C75.8791 63.3187 75.825 63.6333 75.6448 63.8768C75.4646 64.1205 75.1797 64.2644 74.8767 64.2649H74.8757Z" fill="#B59385"/>
<path fill-rule="evenodd" clip-rule="evenodd" d="M57.2007 64.2661C56.8977 64.2656 56.6128 64.1217 56.4326 63.8781C56.2526 63.6345 56.1984 63.3199 56.2867 63.03L60.3867 49.6301C60.4835 49.2997 60.7506 49.0468 61.0858 48.9681C61.4211 48.8895 61.7727 48.9972 62.0063 49.2501C62.24 49.5031 62.3196 49.8621 62.2147 50.1901L58.1147 63.5901C57.9917 63.9917 57.6208 64.2661 57.2007 64.2661Z" fill="#B59385"/>
<path fill-rule="evenodd" clip-rule="evenodd" d="M70.7898 42.8289L71.7607 31.7638C71.9204 29.9448 73.4438 28.5496 75.2698 28.5498H76.1698C76.7419 28.5499 77.2878 28.7902 77.6744 29.212C78.061 29.634 78.2527 30.1989 78.2028 30.7688L76.8578 46.0908C76.5742 49.3209 73.8693 51.7988 70.6267 51.7988H57.5908C56.505 51.7988 55.6248 50.9186 55.6248 49.8328V49.3478C55.6248 47.194 57.3708 45.4479 59.5248 45.4479H67.9277C69.4167 45.4493 70.6595 44.312 70.7898 42.8289Z" fill="#799EE5"/>
<path fill-rule="evenodd" clip-rule="evenodd" d="M71.2578 37.4897L70.7899 42.8287C70.6598 44.3108 69.4186 45.4478 67.9308 45.4478H59.5289C57.375 45.4478 55.6289 47.1938 55.6289 49.3478V49.8328C55.6285 50.9178 56.5084 51.7983 57.5942 51.7987H70.6288C72.5901 51.7997 74.4381 50.88 75.6198 49.3147C73.0919 47.7267 71.6948 43.0988 71.2578 37.4897Z" fill="#6E8FD1"/>
<rect x="43.1309" y="39.4839" width="4.903" height="19.895" fill="#B3BDCC"/>
<rect x="43.1309" y="39.4839" width="4.903" height="4.279" fill="#A8B2BF"/>
<path fill-rule="evenodd" clip-rule="evenodd" d="M49.6326 59.3779H41.5326C40.3668 59.3782 39.3483 60.1656 39.0546 61.2939L38.8236 62.1819C38.7533 62.4517 38.8119 62.7388 38.9824 62.9594C39.1528 63.1798 39.4159 63.309 39.6946 63.309H51.4615C51.7404 63.309 52.0034 63.1798 52.1738 62.9594C52.3442 62.7388 52.403 62.4517 52.3326 62.1819L52.1016 61.2939C51.8091 60.1687 50.7952 59.382 49.6326 59.3779Z" fill="#414C59"/>
<path fill-rule="evenodd" clip-rule="evenodd" d="M59.0518 35.1187H32.1138C30.4692 35.1185 29.0511 36.2747 28.7198 37.8856C28.6387 38.277 28.7378 38.6841 28.9899 38.9943C29.2419 39.3044 29.6201 39.4849 30.0198 39.4856H61.1418C61.5415 39.4849 61.9197 39.3044 62.1718 38.9943C62.4238 38.6841 62.5229 38.277 62.4418 37.8856C62.1108 36.2761 60.6949 35.1205 59.0518 35.1187Z" fill="#F4E08F"/>
<path fill-rule="evenodd" clip-rule="evenodd" d="M49.8608 39.4838C47.2869 38.3387 46.6788 36.2917 47.0188 35.1187H32.1138C30.4692 35.1187 29.0511 36.2748 28.7198 37.8857C28.6387 38.2771 28.7378 38.6842 28.9899 38.9944C29.2419 39.3046 29.6201 39.485 30.0198 39.4857H49.8589L49.8608 39.4838Z" fill="#EBCE72"/>
</svg>
