<svg width="396" height="343" viewBox="0 0 396 343" fill="none" xmlns="http://www.w3.org/2000/svg">
<path fill-rule="evenodd" clip-rule="evenodd" d="M21.0646 59.1709C47.5436 11.1157 136.79 -59.4961 252.514 97.419C368.238 254.334 155.423 338.675 67.1586 298.466C-21.1053 258.257 -5.41534 107.226 21.0646 59.1709Z" fill="white"/>
<path fill-rule="evenodd" clip-rule="evenodd" d="M166.393 95.6484H71.3046C64.4727 95.6504 58.9351 101.188 58.9346 108.021V132.729C58.9369 139.566 64.4767 145.103 71.3088 145.102C74.7125 145.112 77.5045 147.801 77.6426 151.202C77.8874 155.546 77.4319 159.902 76.2936 164.102C75.8705 165.575 76.2843 167.163 77.373 168.242C78.4617 169.322 80.0523 169.723 81.5226 169.288C90.9226 166.538 97.2896 161.339 101.903 150.137C103.151 147.093 106.113 145.104 109.403 145.1H166.395C173.227 145.1 178.767 139.561 178.767 132.728V108.021C178.764 101.185 173.223 95.6475 166.39 95.6484H166.393Z" fill="#8EAFE2"/>
<path fill-rule="evenodd" clip-rule="evenodd" d="M71.3086 95.6484C64.4751 95.6479 58.9351 101.187 58.9346 108.021V132.729C58.9346 136.011 60.2383 139.158 62.5589 141.479C64.8796 143.799 68.027 145.102 71.3086 145.102C74.7139 145.109 77.5084 147.799 77.6456 151.202C77.8908 155.546 77.4356 159.902 76.2976 164.102C75.8746 165.575 76.2883 167.163 77.377 168.242C78.4657 169.322 80.0563 169.723 81.5266 169.288C90.9266 166.538 97.2936 161.339 101.907 150.137C103.154 147.095 106.115 145.106 109.403 145.102H113.116C101.728 134.145 95.0396 111.842 99.7326 95.6484H71.3086Z" fill="#6A96D7"/>
<path fill-rule="evenodd" clip-rule="evenodd" d="M120.071 159.363H215.155C218.437 159.362 221.584 160.666 223.905 162.987C226.225 165.307 227.529 168.455 227.529 171.737V196.444C227.53 199.722 226.227 202.87 223.907 205.191C221.587 207.513 218.44 208.817 215.158 208.818C211.751 208.824 208.955 211.514 208.817 214.918C208.572 219.262 209.028 223.618 210.166 227.818C210.589 229.292 210.176 230.879 209.087 231.959C207.998 233.04 206.407 233.44 204.937 233.005C195.537 230.255 189.17 225.057 184.557 213.854C183.309 210.81 180.347 208.82 177.057 208.817H120.07C113.237 208.817 107.698 203.278 107.698 196.445L107.698 171.737C107.698 164.903 113.237 159.363 120.071 159.363Z" fill="#A3DEFE"/>
<path fill-rule="evenodd" clip-rule="evenodd" d="M373.355 342.012L212.445 339.276C206.891 339.182 201.602 336.885 197.742 332.891C193.882 328.898 191.766 323.534 191.861 317.98L192.572 276.168C192.666 270.613 194.963 265.325 198.957 261.464C202.951 257.604 208.315 255.489 213.869 255.584C219.633 255.669 224.439 251.195 224.769 245.44C225.308 238.096 224.663 230.712 222.857 223.572C222.183 221.065 222.929 218.39 224.802 216.594C226.676 214.798 229.38 214.166 231.856 214.945C247.685 219.869 258.31 228.849 265.793 247.941C267.816 253.126 272.768 256.578 278.333 256.68L374.78 258.319C386.343 258.516 395.557 268.049 395.361 279.612L394.65 321.428C394.448 333.001 384.91 342.212 373.346 342.011L373.355 342.012Z" fill="#ADE6BB"/>
<path fill-rule="evenodd" clip-rule="evenodd" d="M157.459 159.363H120.069C116.787 159.362 113.64 160.666 111.319 162.987C108.999 165.307 107.695 168.455 107.695 171.737V196.444C107.694 199.722 108.997 202.87 111.317 205.191C113.637 207.513 116.784 208.817 120.066 208.818H167.752C158.943 197.836 154.732 172.033 157.459 159.363H157.459Z" fill="#7ACEFA"/>
<path fill-rule="evenodd" clip-rule="evenodd" d="M132.18 206.919C132.184 218.914 124.956 229.74 113.866 234.338C102.775 238.937 90.0073 236.401 81.515 227.915C73.0229 219.429 70.4789 206.663 75.0694 195.569C79.66 184.476 90.481 177.24 102.487 177.236C110.361 177.234 117.913 180.36 123.482 185.927C129.05 191.494 132.179 199.045 132.18 206.919H132.18Z" fill="#F7EF87"/>
<path fill-rule="evenodd" clip-rule="evenodd" d="M97.1447 201.599C97.1447 204.775 93.9117 207.35 89.9227 207.35C85.9337 207.35 82.7007 204.776 82.7007 201.599C82.7007 198.422 85.9337 195.848 89.9227 195.848C93.9117 195.848 97.1447 198.423 97.1447 201.599Z" fill="#EDA1AB"/>
<path fill-rule="evenodd" clip-rule="evenodd" d="M102.846 201.599C102.846 204.775 106.08 207.35 110.069 207.35C114.058 207.35 117.291 204.776 117.291 201.599C117.291 198.422 114.058 195.848 110.069 195.848C106.08 195.848 102.846 198.423 102.846 201.599Z" fill="#EDA1AB"/>
<path fill-rule="evenodd" clip-rule="evenodd" d="M107.318 217.18C107.318 213.58 104.712 213.243 101.496 213.243C98.2799 213.243 95.6719 213.581 95.6719 217.18C95.6719 220.779 98.2799 223.695 101.496 223.695C104.712 223.695 107.318 220.779 107.318 217.18Z" fill="#4E5660"/>
<path fill-rule="evenodd" clip-rule="evenodd" d="M118.737 98.7998C118.517 90.8384 124.786 84.2031 132.748 83.9712C137.102 83.9131 141.24 85.8608 143.971 89.2529C146.701 85.8608 150.84 83.9131 155.194 83.9712C163.155 84.2031 169.424 90.8384 169.205 98.7998C168.887 113.418 157.613 123.011 149.227 127.773C145.967 129.625 141.973 129.625 138.714 127.773C130.328 123.011 119.056 113.419 118.737 98.7998Z" fill="#EDA1AB"/>
<path d="M238.873 290.51V305.8H236.365V299.112H229.171V305.8H226.663V290.51H229.171V297.066H236.365V290.51H238.873ZM243.45 292.072C242.996 292.072 242.614 291.918 242.306 291.61C241.998 291.302 241.844 290.92 241.844 290.466C241.844 290.011 241.998 289.63 242.306 289.322C242.614 289.014 242.996 288.86 243.45 288.86C243.89 288.86 244.264 289.014 244.572 289.322C244.88 289.63 245.034 290.011 245.034 290.466C245.034 290.92 244.88 291.302 244.572 291.61C244.264 291.918 243.89 292.072 243.45 292.072ZM244.682 293.678V305.8H242.174V293.678H244.682ZM250.725 302.786L248.063 308.858H246.435L247.997 302.786H250.725ZM261.139 290.51V305.8H258.631V290.51H261.139ZM265.796 288.266L265.532 292.776H263.816L263.53 288.266H265.796ZM282.887 293.48C283.841 293.48 284.691 293.678 285.439 294.074C286.202 294.47 286.796 295.056 287.221 295.834C287.661 296.611 287.881 297.55 287.881 298.65V305.8H285.395V299.024C285.395 297.938 285.124 297.11 284.581 296.538C284.039 295.951 283.298 295.658 282.359 295.658C281.421 295.658 280.673 295.951 280.115 296.538C279.573 297.11 279.301 297.938 279.301 299.024V305.8H276.815V299.024C276.815 297.938 276.544 297.11 276.001 296.538C275.459 295.951 274.718 295.658 273.779 295.658C272.841 295.658 272.093 295.951 271.535 296.538C270.993 297.11 270.721 297.938 270.721 299.024V305.8H268.213V293.678H270.721V295.064C271.132 294.565 271.653 294.176 272.283 293.898C272.914 293.619 273.589 293.48 274.307 293.48C275.275 293.48 276.141 293.685 276.903 294.096C277.666 294.506 278.253 295.1 278.663 295.878C279.03 295.144 279.602 294.565 280.379 294.14C281.157 293.7 281.993 293.48 282.887 293.48ZM301.782 290.51C303.41 290.51 304.832 290.825 306.05 291.456C307.282 292.072 308.228 292.966 308.888 294.14C309.562 295.298 309.9 296.655 309.9 298.21C309.9 299.764 309.562 301.114 308.888 302.258C308.228 303.402 307.282 304.282 306.05 304.898C304.832 305.499 303.41 305.8 301.782 305.8H296.788V290.51H301.782ZM301.782 303.754C303.571 303.754 304.942 303.27 305.896 302.302C306.849 301.334 307.326 299.97 307.326 298.21C307.326 296.435 306.849 295.049 305.896 294.052C304.942 293.054 303.571 292.556 301.782 292.556H299.296V303.754H301.782ZM311.549 299.684C311.549 298.466 311.799 297.388 312.297 296.45C312.811 295.511 313.5 294.785 314.365 294.272C315.245 293.744 316.213 293.48 317.269 293.48C318.223 293.48 319.051 293.67 319.755 294.052C320.474 294.418 321.046 294.88 321.471 295.438V293.678H324.001V305.8H321.471V303.996C321.046 304.568 320.467 305.044 319.733 305.426C319 305.807 318.164 305.998 317.225 305.998C316.184 305.998 315.231 305.734 314.365 305.206C313.5 304.663 312.811 303.915 312.297 302.962C311.799 301.994 311.549 300.901 311.549 299.684ZM321.471 299.728C321.471 298.892 321.295 298.166 320.943 297.55C320.606 296.934 320.159 296.464 319.601 296.142C319.044 295.819 318.443 295.658 317.797 295.658C317.152 295.658 316.551 295.819 315.993 296.142C315.436 296.45 314.981 296.912 314.629 297.528C314.292 298.129 314.123 298.848 314.123 299.684C314.123 300.52 314.292 301.253 314.629 301.884C314.981 302.514 315.436 302.998 315.993 303.336C316.565 303.658 317.167 303.82 317.797 303.82C318.443 303.82 319.044 303.658 319.601 303.336C320.159 303.013 320.606 302.544 320.943 301.928C321.295 301.297 321.471 300.564 321.471 299.728ZM329.804 295.438C330.17 294.822 330.654 294.345 331.256 294.008C331.872 293.656 332.598 293.48 333.434 293.48V296.076H332.796C331.813 296.076 331.065 296.325 330.552 296.824C330.053 297.322 329.804 298.188 329.804 299.42V305.8H327.296V293.678H329.804V295.438ZM338.247 289.52V305.8H335.739V289.52H338.247ZM342.816 292.072C342.361 292.072 341.98 291.918 341.672 291.61C341.364 291.302 341.21 290.92 341.21 290.466C341.21 290.011 341.364 289.63 341.672 289.322C341.98 289.014 342.361 288.86 342.816 288.86C343.256 288.86 343.63 289.014 343.938 289.322C344.246 289.63 344.4 290.011 344.4 290.466C344.4 290.92 344.246 291.302 343.938 291.61C343.63 291.918 343.256 292.072 342.816 292.072ZM344.048 293.678V305.8H341.54V293.678H344.048ZM346.504 299.684C346.504 298.466 346.754 297.388 347.252 296.45C347.766 295.511 348.455 294.785 349.32 294.272C350.2 293.744 351.168 293.48 352.224 293.48C353.178 293.48 354.006 293.67 354.71 294.052C355.429 294.418 356.001 294.88 356.426 295.438V293.678H358.956V305.8H356.426V303.996C356.001 304.568 355.422 305.044 354.688 305.426C353.955 305.807 353.119 305.998 352.18 305.998C351.139 305.998 350.186 305.734 349.32 305.206C348.455 304.663 347.766 303.915 347.252 302.962C346.754 301.994 346.504 300.901 346.504 299.684ZM356.426 299.728C356.426 298.892 356.25 298.166 355.898 297.55C355.561 296.934 355.114 296.464 354.556 296.142C353.999 295.819 353.398 295.658 352.752 295.658C352.107 295.658 351.506 295.819 350.948 296.142C350.391 296.45 349.936 296.912 349.584 297.528C349.247 298.129 349.078 298.848 349.078 299.684C349.078 300.52 349.247 301.253 349.584 301.884C349.936 302.514 350.391 302.998 350.948 303.336C351.52 303.658 352.122 303.82 352.752 303.82C353.398 303.82 353.999 303.658 354.556 303.336C355.114 303.013 355.561 302.544 355.898 301.928C356.25 301.297 356.426 300.564 356.426 299.728Z" fill="#003D2B"/>
</svg>
