<svg width="87" height="87" viewBox="0 0 87 87" fill="none" xmlns="http://www.w3.org/2000/svg">
<circle cx="43.0127" cy="43.7998" r="43" fill="#ADE6BB"/>
<path fill-rule="evenodd" clip-rule="evenodd" d="M64.4688 34.4618H60.2377C59.4739 32.184 57.3402 30.6489 54.9377 30.6489C52.5353 30.6489 50.4015 32.184 49.6378 34.4618H22.5377C21.5714 34.4846 20.7998 35.2747 20.7998 36.2413C20.7998 37.208 21.5714 37.998 22.5377 38.0209H49.6378C50.4015 40.2987 52.5353 41.8337 54.9377 41.8337C57.3402 41.8337 59.4739 40.2987 60.2377 38.0209H64.4688C65.1145 38.0361 65.7179 37.7003 66.0453 37.1434C66.3726 36.5865 66.3726 35.8961 66.0453 35.3392C65.7179 34.7823 65.1145 34.4465 64.4688 34.4618ZM54.9388 38.2736C53.816 38.2736 52.9058 37.3634 52.9058 36.2406C52.9058 35.1178 53.816 34.2075 54.9388 34.2075C56.0616 34.2075 56.9718 35.1178 56.9718 36.2406C56.9707 37.3633 56.0605 38.2731 54.9378 38.2736H54.9388Z" fill="black"/>
<path fill-rule="evenodd" clip-rule="evenodd" d="M64.4685 49.7108H44.9875C44.2237 47.433 42.09 45.8979 39.6875 45.8979C37.285 45.8979 35.1512 47.433 34.3875 49.7108H22.5345C21.5682 49.7339 20.7969 50.5237 20.7969 51.4902C20.7969 52.4568 21.5682 53.2468 22.5345 53.2698H34.3875C35.1512 55.5476 37.285 57.0826 39.6875 57.0826C42.09 57.0826 44.2237 55.5476 44.9875 53.2698H64.4675C65.1133 53.2852 65.7169 52.9495 66.0443 52.3926C66.3717 51.8356 66.3717 51.145 66.0443 50.5881C65.7169 50.0312 65.1133 49.6954 64.4675 49.7108H64.4685ZM39.6874 53.5225C38.8651 53.5225 38.1238 53.0272 37.8091 52.2676C37.4944 51.5078 37.6684 50.6334 38.2498 50.052C38.8312 49.4706 39.7057 49.2966 40.4653 49.6113C41.225 49.926 41.7203 50.6672 41.7203 51.4895C41.7194 52.6116 40.81 53.5212 39.6877 53.5226L39.6874 53.5225Z" fill="black"/>
</svg>
