<svg width="343" height="279" viewBox="0 0 343 279" fill="none" xmlns="http://www.w3.org/2000/svg">
<rect x="62.0127" y="64.7998" width="255" height="172" fill="#ADE6B9"/>
<path fill-rule="evenodd" clip-rule="evenodd" d="M0.0126953 86.7998V44.7998C0.0126953 32.6495 4.30846 22.2786 12.9 13.6871C21.4915 5.09557 31.8624 0.799805 44.0127 0.799805H211.013C223.163 0.799805 233.534 5.09557 242.125 13.6871C250.717 22.2786 255.013 32.6495 255.013 44.7998V128.8C255.013 140.95 250.717 151.321 242.125 159.913C233.534 168.504 223.163 172.8 211.013 172.8H44.0127C31.8624 172.8 21.4915 168.504 12.9 159.913C4.30846 151.321 0.0126953 140.95 0.0126953 128.8V86.7998Z" fill="#ADE6B9"/>
<path fill-rule="evenodd" clip-rule="evenodd" d="M138.013 182.8C138.013 156.29 147.385 133.663 166.13 114.918C184.876 96.1724 207.503 86.7998 234.013 86.7998H246.013C272.522 86.7998 295.15 96.1724 313.895 114.918C332.64 133.663 342.013 156.29 342.013 182.8C342.013 209.309 332.64 231.937 313.895 250.682C295.15 269.427 272.522 278.8 246.013 278.8H234.013C207.503 278.8 184.876 269.427 166.13 250.682C147.385 231.937 138.013 209.309 138.013 182.8Z" fill="#ADE6B9"/>
<rect x="84.0127" y="79.7998" width="211" height="142" fill="#ADE6B9"/>
<rect x="86.0127" y="81.7998" width="207" height="138" stroke="#003D2B" stroke-width="4"/>
<path fill-rule="evenodd" clip-rule="evenodd" d="M22.0127 86.7998V66.7998C22.0127 52.7165 26.9919 40.6957 36.9503 30.7374C46.9086 20.779 58.9294 15.7998 73.0127 15.7998H182.013C196.096 15.7998 208.117 20.779 218.075 30.7374C228.033 40.6957 233.013 52.7165 233.013 66.7998V106.8C233.013 120.883 228.033 132.904 218.075 142.862C208.117 152.821 196.096 157.8 182.013 157.8H73.0127C58.9294 157.8 46.9086 152.821 36.9503 142.862C26.9919 132.904 22.0127 120.883 22.0127 106.8V86.7998Z" fill="#ADE6B9"/>
<path fill-rule="evenodd" clip-rule="evenodd" d="M24.0127 86.7998V66.7998C24.0127 53.2688 28.7966 41.7194 38.3645 32.1516C47.9323 22.5837 59.4817 17.7998 73.0127 17.7998H182.013C195.544 17.7998 207.093 22.5837 216.661 32.1516C226.229 41.7194 231.013 53.2688 231.013 66.7998V106.8C231.013 120.331 226.229 131.88 216.661 141.448C207.093 151.016 195.544 155.8 182.013 155.8H73.0127C59.4817 155.8 47.9323 151.016 38.3645 141.448C28.7966 131.88 24.0127 120.331 24.0127 106.8V86.7998Z" stroke="#003D2B" stroke-width="4"/>
<path fill-rule="evenodd" clip-rule="evenodd" d="M164.013 182.8C164.013 163.194 170.945 146.459 184.808 132.595C198.672 118.732 215.407 111.8 235.013 111.8H245.013C264.619 111.8 281.354 118.732 295.217 132.595C309.081 146.459 316.013 163.194 316.013 182.8C316.013 202.406 309.081 219.141 295.217 233.004C281.354 246.868 264.619 253.8 245.013 253.8H235.013C215.407 253.8 198.672 246.868 184.808 233.004C170.945 219.141 164.013 202.406 164.013 182.8Z" fill="#ADE6B9"/>
<path fill-rule="evenodd" clip-rule="evenodd" d="M166.013 182.8C166.013 163.746 172.749 147.483 186.222 134.009C199.695 120.536 215.959 113.8 235.013 113.8H245.013C264.067 113.8 280.33 120.536 293.803 134.009C307.276 147.483 314.013 163.746 314.013 182.8C314.013 201.854 307.276 218.117 293.803 231.59C280.33 245.063 264.067 251.8 245.013 251.8H235.013C215.959 251.8 199.695 245.063 186.222 231.59C172.749 218.117 166.013 201.854 166.013 182.8V182.8Z" stroke="#003D2B" stroke-width="4"/>
<path d="M288.513 158.268L228.45 218.331" stroke="#003D2B" stroke-width="4"/>
<path d="M200.513 187.601L230.545 218.331" stroke="#003D2B" stroke-width="4"/>
</svg>
