<svg width="235" height="85" viewBox="0 0 235 85" fill="none" xmlns="http://www.w3.org/2000/svg">
<circle cx="42.0127" cy="42.1997" r="40.75" stroke="#DCDCDC" stroke-width="2.5"/>
<path fill-rule="evenodd" clip-rule="evenodd" d="M40.7089 42.5659L47.7089 35.5659C48.1075 35.1655 48.1075 34.5181 47.7089 34.1177L47.0999 33.4995C46.6995 33.1011 46.0521 33.1011 45.6519 33.4995L37.3119 41.8398C36.9136 42.2427 36.9136 42.8911 37.3119 43.2939L45.6438 51.6255C46.0443 52.0249 46.6924 52.0249 47.0929 51.6255L47.7068 51.0127C48.1061 50.6128 48.1061 49.9648 47.7068 49.5649L40.7089 42.5659Z" fill="#DCDCDC"/>
<circle cx="192.013" cy="42.1997" r="40.75" stroke="black" stroke-width="2.5"/>
<path fill-rule="evenodd" clip-rule="evenodd" d="M194.316 42.5659L187.316 35.5659C186.917 35.1655 186.917 34.5181 187.316 34.1177L187.926 33.4995C188.326 33.1011 188.973 33.1011 189.374 33.4995L197.714 41.8398C198.112 42.2427 198.112 42.8911 197.714 43.2939L189.382 51.6255C188.981 52.0249 188.333 52.0249 187.933 51.6255L187.319 51.0127C186.919 50.6128 186.919 49.9648 187.319 49.5649L194.316 42.5659Z" fill="black"/>
</svg>
