<svg width="209" height="34" viewBox="0 0 209 34" fill="none" xmlns="http://www.w3.org/2000/svg">
<path fill-rule="evenodd" clip-rule="evenodd" d="M33.8354 12.1667L22.7355 11.1377L18.3295 0.900635C18.1893 0.573975 17.868 0.362305 17.5125 0.362305C17.157 0.362305 16.8356 0.573975 16.6954 0.900635L12.2875 11.1377L1.18945 12.1667C0.836304 12.2007 0.537231 12.4416 0.428589 12.7793C0.319824 13.1172 0.422485 13.4871 0.689453 13.7207L9.05847 21.0767L6.60742 31.9497C6.52905 32.2964 6.66455 32.6562 6.95215 32.8652C7.23975 33.0742 7.62415 33.0918 7.92944 32.9097L17.5125 27.2197L27.0955 32.9097C27.4009 33.0918 27.7852 33.0742 28.0728 32.8652C28.3604 32.6562 28.496 32.2964 28.4175 31.9497L25.9675 21.0767L34.3405 13.7207C34.6079 13.4863 34.71 13.1155 34.6001 12.7773C34.4902 12.4392 34.1895 12.199 33.8354 12.1667Z" fill="#FFDC64"/>
<path fill-rule="evenodd" clip-rule="evenodd" d="M18.3295 0.900635C18.1893 0.573975 17.868 0.362305 17.5125 0.362305C17.157 0.362305 16.8356 0.573975 16.6954 0.900635L12.2875 11.1377L1.18945 12.1667C0.836304 12.2007 0.537231 12.4416 0.428589 12.7793C0.319824 13.1172 0.422485 13.4871 0.689453 13.7207L9.05847 21.0767L6.60742 31.9497C6.52905 32.2964 6.66455 32.6562 6.95215 32.8652C7.23975 33.0742 7.62415 33.0918 7.92944 32.9097L10.0685 31.6396C10.3077 22.0952 14.0201 12.9658 20.5094 5.96265L18.3295 0.900635Z" fill="#FFC850"/>
<path fill-rule="evenodd" clip-rule="evenodd" d="M76.8354 12.1667L65.7355 11.1377L61.3295 0.900635C61.1893 0.573975 60.868 0.362305 60.5125 0.362305C60.157 0.362305 59.8356 0.573975 59.6954 0.900635L55.2875 11.1377L44.1895 12.1667C43.8363 12.2007 43.5372 12.4416 43.4286 12.7793C43.3198 13.1172 43.4225 13.4871 43.6895 13.7207L52.0585 21.0767L49.6074 31.9497C49.5291 32.2964 49.6646 32.6562 49.9521 32.8652C50.2397 33.0742 50.6241 33.0918 50.9294 32.9097L60.5125 27.2197L70.0955 32.9097C70.4009 33.0918 70.7852 33.0742 71.0728 32.8652C71.3604 32.6562 71.496 32.2964 71.4175 31.9497L68.9675 21.0767L77.3405 13.7207C77.6079 13.4863 77.71 13.1155 77.6001 12.7773C77.4902 12.4392 77.1895 12.199 76.8354 12.1667Z" fill="#FFDC64"/>
<path fill-rule="evenodd" clip-rule="evenodd" d="M61.3295 0.900635C61.1893 0.573975 60.868 0.362305 60.5125 0.362305C60.157 0.362305 59.8356 0.573975 59.6954 0.900635L55.2875 11.1377L44.1895 12.1667C43.8363 12.2007 43.5372 12.4416 43.4286 12.7793C43.3198 13.1172 43.4225 13.4871 43.6895 13.7207L52.0585 21.0767L49.6074 31.9497C49.5291 32.2964 49.6646 32.6562 49.9521 32.8652C50.2397 33.0742 50.6241 33.0918 50.9294 32.9097L53.0685 31.6396C53.3077 22.0952 57.0201 12.9658 63.5094 5.96265L61.3295 0.900635Z" fill="#FFC850"/>
<path fill-rule="evenodd" clip-rule="evenodd" d="M120.835 12.1667L109.735 11.1377L105.329 0.900635C105.189 0.573975 104.868 0.362305 104.512 0.362305C104.157 0.362305 103.836 0.573975 103.695 0.900635L99.2875 11.1377L88.1895 12.1667C87.8363 12.2007 87.5372 12.4416 87.4286 12.7793C87.3198 13.1172 87.4225 13.4871 87.6895 13.7207L96.0585 21.0767L93.6074 31.9497C93.5291 32.2964 93.6646 32.6562 93.9521 32.8652C94.2397 33.0742 94.6241 33.0918 94.9294 32.9097L104.512 27.2197L114.095 32.9097C114.401 33.0918 114.785 33.0742 115.073 32.8652C115.36 32.6562 115.496 32.2964 115.417 31.9497L112.968 21.0767L121.34 13.7207C121.608 13.4863 121.71 13.1155 121.6 12.7773C121.49 12.4392 121.189 12.199 120.835 12.1667Z" fill="#FFDC64"/>
<path fill-rule="evenodd" clip-rule="evenodd" d="M105.329 0.900635C105.189 0.573975 104.868 0.362305 104.512 0.362305C104.157 0.362305 103.836 0.573975 103.695 0.900635L99.2875 11.1377L88.1895 12.1667C87.8363 12.2007 87.5372 12.4416 87.4286 12.7793C87.3198 13.1172 87.4225 13.4871 87.6895 13.7207L96.0585 21.0767L93.6074 31.9497C93.5291 32.2964 93.6646 32.6562 93.9521 32.8652C94.2397 33.0742 94.6241 33.0918 94.9294 32.9097L97.0685 31.6396C97.3077 22.0952 101.02 12.9658 107.509 5.96265L105.329 0.900635Z" fill="#FFC850"/>
<path fill-rule="evenodd" clip-rule="evenodd" d="M163.835 12.1667L152.735 11.1377L148.329 0.900635C148.189 0.573975 147.868 0.362305 147.512 0.362305C147.157 0.362305 146.836 0.573975 146.695 0.900635L142.287 11.1377L131.189 12.1667C130.836 12.2007 130.537 12.4416 130.429 12.7793C130.32 13.1172 130.422 13.4871 130.689 13.7207L139.058 21.0767L136.607 31.9497C136.529 32.2964 136.665 32.6562 136.952 32.8652C137.24 33.0742 137.624 33.0918 137.929 32.9097L147.512 27.2197L157.095 32.9097C157.401 33.0918 157.785 33.0742 158.073 32.8652C158.36 32.6562 158.496 32.2964 158.417 31.9497L155.968 21.0767L164.34 13.7207C164.608 13.4863 164.71 13.1155 164.6 12.7773C164.49 12.4392 164.189 12.199 163.835 12.1667Z" fill="#FFDC64"/>
<path fill-rule="evenodd" clip-rule="evenodd" d="M148.329 0.900635C148.189 0.573975 147.868 0.362305 147.512 0.362305C147.157 0.362305 146.836 0.573975 146.695 0.900635L142.287 11.1377L131.189 12.1667C130.836 12.2007 130.537 12.4416 130.429 12.7793C130.32 13.1172 130.422 13.4871 130.689 13.7207L139.058 21.0767L136.607 31.9497C136.529 32.2964 136.665 32.6562 136.952 32.8652C137.24 33.0742 137.624 33.0918 137.929 32.9097L140.068 31.6396C140.308 22.0952 144.02 12.9658 150.509 5.96265L148.329 0.900635Z" fill="#FFC850"/>
<path fill-rule="evenodd" clip-rule="evenodd" d="M207.835 12.1667L196.735 11.1377L192.329 0.900635C192.189 0.573975 191.868 0.362305 191.512 0.362305C191.157 0.362305 190.836 0.573975 190.695 0.900635L186.287 11.1377L175.189 12.1667C174.836 12.2007 174.537 12.4416 174.429 12.7793C174.32 13.1172 174.422 13.4871 174.689 13.7207L183.058 21.0767L180.607 31.9497C180.529 32.2964 180.665 32.6562 180.952 32.8652C181.24 33.0742 181.624 33.0918 181.929 32.9097L191.512 27.2197L201.095 32.9097C201.401 33.0918 201.785 33.0742 202.073 32.8652C202.36 32.6562 202.496 32.2964 202.417 31.9497L199.968 21.0767L208.34 13.7207C208.608 13.4863 208.71 13.1155 208.6 12.7773C208.49 12.4392 208.189 12.199 207.835 12.1667Z" fill="#FFDC64"/>
<path fill-rule="evenodd" clip-rule="evenodd" d="M192.329 0.900635C192.189 0.573975 191.868 0.362305 191.512 0.362305C191.157 0.362305 190.836 0.573975 190.695 0.900635L186.287 11.1377L175.189 12.1667C174.836 12.2007 174.537 12.4416 174.429 12.7793C174.32 13.1172 174.422 13.4871 174.689 13.7207L183.058 21.0767L180.607 31.9497C180.529 32.2964 180.665 32.6562 180.952 32.8652C181.24 33.0742 181.624 33.0918 181.929 32.9097L184.068 31.6396C184.308 22.0952 188.02 12.9658 194.509 5.96265L192.329 0.900635Z" fill="#FFC850"/>
</svg>
