<svg width="87" height="87" viewBox="0 0 87 87" fill="none" xmlns="http://www.w3.org/2000/svg">
<circle cx="43.0127" cy="43.7998" r="43" fill="#ADE6BB"/>
<path fill-rule="evenodd" clip-rule="evenodd" d="M59.8177 27.0319C54.8989 27.0352 50.0899 25.5775 46.0007 22.8439L44.6667 21.9548C44.2219 21.6582 43.6424 21.6582 43.1977 21.9548L41.8637 22.8439C37.7745 25.5775 32.9655 27.0352 28.0467 27.0319C27.3174 27.0317 26.7254 27.6216 26.7227 28.3508V43.4658C26.7137 54.0598 33.4741 63.4739 43.5146 66.8501C43.786 66.9404 44.0793 66.9403 44.3507 66.8499C54.3909 63.4729 61.1507 54.0587 61.1417 43.4658V28.3508C61.1389 27.6216 60.547 27.0319 59.8177 27.0319H59.8177ZM58.4937 43.4661C58.5206 52.7627 52.6863 61.0671 43.9315 64.1941C35.1772 61.0667 29.3435 52.7622 29.3707 43.4661V29.644C34.3563 29.4081 39.1833 27.8179 43.3327 25.0441L43.9327 24.644L44.5327 25.0441C48.6821 27.8179 53.5091 29.4082 58.4947 29.644L58.4937 43.4661Z" fill="black"/>
<path fill-rule="evenodd" clip-rule="evenodd" d="M42.6088 41.6775V43.0015H41.2848C40.5546 43.0029 39.9634 43.5953 39.9634 44.3256C39.9634 45.0558 40.5546 45.6481 41.2848 45.6495H42.6088V46.9735C42.6079 47.4471 42.86 47.8853 43.2701 48.1223C43.6801 48.3594 44.1855 48.3594 44.5956 48.1223C45.0056 47.8853 45.2577 47.4471 45.2568 46.9735V45.6536H46.5808C47.311 45.6521 47.9023 45.0598 47.9023 44.3296C47.9023 43.5994 47.311 43.007 46.5808 43.0055H45.2608V41.6815C45.2617 41.2079 45.0096 40.7698 44.5996 40.5327C44.1895 40.2957 43.6841 40.2957 43.2741 40.5327C42.8641 40.7698 42.6119 41.2079 42.6128 41.6815L42.6088 41.6775Z" fill="black"/>
<path fill-rule="evenodd" clip-rule="evenodd" d="M34.6655 44.3261C34.6655 48.0742 36.9234 51.4534 40.3862 52.8877C43.849 54.322 47.8349 53.5292 50.4853 50.8788C53.1356 48.2285 53.9285 44.2426 52.4941 40.7798C51.0598 37.3169 47.6807 35.0591 43.9325 35.0591C38.8168 35.0646 34.671 39.2103 34.6655 44.3261ZM50.5505 44.326C50.5505 47.9817 47.5871 50.9451 43.9315 50.9451C40.2759 50.9451 37.3125 47.9817 37.3125 44.326C37.3125 40.6705 40.2759 37.707 43.9315 37.707C47.5855 37.7109 50.5466 40.6721 50.5505 44.326Z" fill="black"/>
</svg>
