<svg width="212" height="47" viewBox="0 0 212 47" fill="none" xmlns="http://www.w3.org/2000/svg">
<rect x="0.0126953" y="0.799805" width="46" height="46" fill="#151515"/>
<path d="M30.1372 17.5156C29.5216 17.2734 28.9313 17.1523 28.3662 17.1523C26.8324 17.1523 26.0654 17.9849 26.0654 19.6499V21.2998H29.6074V24.8267H26.0654V36.7998H21.2974V24.8267H18.6938V21.2998H21.2974V19.3774C21.2974 17.6115 21.8726 16.1886 23.0229 15.1089C24.1733 14.0291 25.7375 13.4893 27.7153 13.4893C28.6841 13.4893 29.4914 13.5902 30.1372 13.792V17.5156Z" fill="white"/>
<rect x="55.0127" y="0.799805" width="46" height="46" fill="#151515"/>
<path fill-rule="evenodd" clip-rule="evenodd" d="M87.5468 18.6626C88.517 17.9683 89.3527 17.103 90.0127 16.1089C89.1099 16.5024 88.155 16.7642 87.1777 16.8857C88.2079 16.2744 88.9783 15.3066 89.3427 14.166C88.3781 14.7378 87.3229 15.1406 86.2227 15.3569C84.8422 13.8838 82.7017 13.4033 80.824 14.1455C78.9464 14.8877 77.7128 16.7017 77.7126 18.7207C77.7089 19.0981 77.7471 19.4741 77.8267 19.8428C73.8673 19.6484 70.1783 17.7764 67.6837 14.6958C66.3684 16.9424 67.0312 19.8252 69.1957 21.272C68.4169 21.251 67.6544 21.043 66.9727 20.666V20.7197C66.9752 23.0615 68.6202 25.0801 70.913 25.5547C70.4919 25.666 70.0581 25.7207 69.6227 25.7168C69.3103 25.7222 68.998 25.6943 68.6917 25.6328C69.344 27.6348 71.187 29.0078 73.2917 29.061C71.5503 30.4229 69.4026 31.1621 67.1917 31.1606C66.7976 31.1626 66.4038 31.1397 66.0127 31.0918C68.2627 32.5415 70.8843 33.3081 73.5607 33.2998C77.3927 33.3267 81.0659 31.771 83.7134 29.0005C86.3607 26.23 87.7477 22.4897 87.5468 18.6626Z" fill="white"/>
<rect x="111.013" y="0.799805" width="46" height="46" fill="#151515"/>
<path fill-rule="evenodd" clip-rule="evenodd" d="M145.496 35.4395H145.502V26.6738C145.502 22.3848 144.579 19.0815 139.565 19.0815C137.646 19.0093 135.844 20 134.877 21.6587H134.807V19.4824H130.053V35.4385H135.003V27.5386C135.003 25.4575 135.397 23.4468 137.974 23.4468C140.513 23.4468 140.551 25.8208 140.551 27.6729V35.4414L145.496 35.4395Z" fill="white"/>
<path fill-rule="evenodd" clip-rule="evenodd" d="M122 19.4785H126.956V35.4365H122V19.4785Z" fill="white"/>
<path fill-rule="evenodd" clip-rule="evenodd" d="M124.474 11.5376C123.305 11.5317 122.248 12.2324 121.798 13.3115C121.348 14.3906 121.594 15.6343 122.421 16.4609C123.247 17.2876 124.491 17.5332 125.57 17.0835C126.649 16.6333 127.349 15.5767 127.344 14.4077C127.343 12.8228 126.059 11.5381 124.474 11.5376Z" fill="white"/>
<rect x="165.013" y="0.799805" width="46" height="46" fill="#151515"/>
<path fill-rule="evenodd" clip-rule="evenodd" d="M201.049 18.4756C201.028 17.3936 200.822 16.3223 200.442 15.3086C199.762 13.5552 198.375 12.1685 196.622 11.4888C195.608 11.1089 194.537 10.9033 193.455 10.8818C192.058 10.8149 191.614 10.7998 188.065 10.7998C184.516 10.7998 184.081 10.8149 182.689 10.877C181.606 10.8975 180.535 11.1025 179.522 11.4829C178.648 11.8105 177.858 12.3262 177.206 12.9927C176.545 13.6455 176.033 14.4336 175.706 15.3027C175.324 16.3164 175.118 17.3872 175.095 18.4697C175.029 19.8677 175.014 20.312 175.014 23.856C175.014 27.3999 175.029 27.8438 175.09 29.2358C175.111 30.3174 175.316 31.3872 175.697 32.3999C176.376 34.1538 177.763 35.5405 179.517 36.2197C180.53 36.6001 181.601 36.8052 182.684 36.8267C184.076 36.8877 184.52 36.9038 188.064 36.9038C191.608 36.9038 192.052 36.8887 193.444 36.8267C194.526 36.8057 195.597 36.6006 196.611 36.2197C198.365 35.5415 199.752 34.1543 200.431 32.3999C200.811 31.3862 201.016 30.3154 201.038 29.2329C201.099 27.8408 201.115 27.397 201.115 23.853C201.115 20.3086 201.11 19.8647 201.049 18.4727V18.4756ZM198.698 29.1338C198.689 29.9609 198.537 30.7803 198.249 31.5557C197.809 32.6948 196.908 33.5947 195.77 34.0347C194.994 34.3228 194.175 34.4746 193.348 34.4839C191.971 34.5449 191.558 34.5596 188.075 34.5596C184.592 34.5596 184.175 34.5449 182.802 34.4839C181.974 34.4751 181.155 34.3232 180.38 34.0347C179.813 33.8271 179.3 33.4941 178.88 33.061C178.448 32.6396 178.115 32.127 177.906 31.561C177.618 30.7852 177.466 29.9658 177.457 29.1387C177.396 27.7617 177.381 27.3486 177.381 23.8657C177.381 20.3828 177.396 19.9658 177.457 18.5928C177.465 17.7651 177.616 16.9453 177.905 16.1699C178.112 15.6016 178.447 15.0889 178.884 14.6699C179.305 14.2373 179.817 13.9048 180.384 13.6958C181.159 13.4077 181.979 13.2559 182.806 13.2466C184.183 13.186 184.596 13.1709 188.079 13.1709C191.562 13.1709 191.979 13.186 193.352 13.2466C194.179 13.2554 194.998 13.4072 195.774 13.6958C196.341 13.9033 196.853 14.2363 197.274 14.6699C197.706 15.0913 198.039 15.6035 198.248 16.1699C198.536 16.9453 198.688 17.7646 198.697 18.5918C198.758 19.9688 198.773 20.3818 198.773 23.8647C198.773 27.3477 198.758 27.7559 198.697 29.1328L198.698 29.1338Z" fill="white"/>
<path fill-rule="evenodd" clip-rule="evenodd" d="M188.069 17.1499C185.356 17.1499 182.911 18.7837 181.873 21.2896C180.835 23.7954 181.409 26.6797 183.327 28.5977C185.245 30.5156 188.129 31.0894 190.635 30.0513C193.141 29.0137 194.775 26.5684 194.775 23.856C194.773 20.1514 191.771 17.1504 188.067 17.1499H188.069ZM188.069 28.207C185.666 28.207 183.719 26.2593 183.719 23.8569C183.719 21.4546 185.666 19.5068 188.069 19.5068C190.471 19.5068 192.419 21.4546 192.419 23.8569C192.417 26.2603 190.47 28.207 188.068 28.207H188.069Z" fill="white"/>
<path fill-rule="evenodd" clip-rule="evenodd" d="M196.606 16.8838C196.606 17.7485 195.905 18.4497 195.04 18.4497C194.175 18.4497 193.474 17.7485 193.474 16.8838C193.474 16.019 194.175 15.3179 195.04 15.3179C195.905 15.3179 196.606 16.019 196.606 16.8838Z" fill="white"/>
</svg>
