<svg width="34" height="23" viewBox="0 0 34 23" fill="none" xmlns="http://www.w3.org/2000/svg">
<path fill-rule="evenodd" clip-rule="evenodd" d="M30.8748 0.799805H2.5127C1.13196 0.799805 0.0126953 1.91943 0.0126953 3.2998V20.1602C0.0126953 21.5405 1.13196 22.6602 2.5127 22.6602H30.8748C32.2554 22.6602 33.3748 21.5405 33.3748 20.1602V3.29785C33.3735 1.91797 32.2545 0.799805 30.8746 0.799805H30.8748Z" fill="#41479B"/>
<path fill-rule="evenodd" clip-rule="evenodd" d="M33.3387 2.88477C33.1361 1.68164 32.0947 0.800781 30.8748 0.799805H30.2247L19.5687 7.78076V0.799805H13.8127V7.78076L3.16064 0.799805H2.5127C1.29199 0.800293 0.249878 1.68213 0.0477295 2.88574L9.15466 8.85303H0.0126953V14.605H9.15466L0.0477295 20.5708C0.249878 21.7749 1.29187 22.6567 2.5127 22.6567H3.16272L13.8127 15.6748V22.6558H19.5647V15.6748L30.2207 22.6558H30.8707C32.0908 22.6553 33.1322 21.7739 33.3347 20.5708L24.2277 14.604H33.3727V8.85205H24.2307L33.3387 2.88477Z" fill="#F5F5F5"/>
<path fill-rule="evenodd" clip-rule="evenodd" d="M18.4187 0.799805H14.9677V10H0.0126953V13.4507H14.9677V22.6509H18.4187V13.4507H33.3727V10.0029H18.4187V0.799805Z" fill="#FF4B55"/>
<path fill-rule="evenodd" clip-rule="evenodd" d="M1.62781 22.4946L13.7898 14.604H11.6727L0.61377 21.7817C0.886597 22.1006 1.23523 22.3462 1.62781 22.4946Z" fill="#FF4B55"/>
<path fill-rule="evenodd" clip-rule="evenodd" d="M22.5818 14.604H20.4688L32.2438 22.2471C32.5739 22.0298 32.8479 21.7378 33.0438 21.395L22.5818 14.604Z" fill="#FF4B55"/>
<path fill-rule="evenodd" clip-rule="evenodd" d="M0.276611 2.18066L10.5537 8.85059H12.6666L1.02063 1.29248C0.706787 1.52637 0.451904 1.83057 0.276611 2.18066Z" fill="#FF4B55"/>
<path fill-rule="evenodd" clip-rule="evenodd" d="M21.6816 8.85156L32.7607 1.65967C32.4847 1.34131 32.1328 1.09766 31.7377 0.95166L19.5686 8.85156H21.6816Z" fill="#FF4B55"/>
</svg>
